<svg width="765" height="781" viewBox="0 0 765 781" fill="none" xmlns="http://www.w3.org/2000/svg">
<path d="M382.019 780.176C593.002 780.176 764.037 681.429 764.037 559.618C764.037 437.808 593.002 339.061 382.019 339.061C171.036 339.061 0 437.808 0 559.618C0 681.429 171.036 780.176 382.019 780.176Z" fill="url(#paint0_linear)"/>
<path d="M116.889 603.383C140.244 603.383 159.177 592.452 159.177 578.968C159.177 565.484 140.244 554.553 116.889 554.553C93.534 554.553 74.6009 565.484 74.6009 578.968C74.6009 592.452 93.534 603.383 116.889 603.383Z" fill="#E6E6E6"/>
<path d="M442.558 448.086L164.62 608.568C163.547 609.162 162.652 610.033 162.029 611.09C161.406 612.146 161.077 613.351 161.077 614.577C161.077 615.804 161.406 617.009 162.029 618.065C162.652 619.122 163.547 619.993 164.62 620.587L327.969 714.898C332.075 717.268 336.732 718.516 341.473 718.516C346.214 718.516 350.871 717.268 354.977 714.898L632.915 554.433C633.988 553.839 634.883 552.969 635.506 551.912C636.129 550.855 636.458 549.651 636.458 548.424C636.458 547.197 636.129 545.993 635.506 544.936C634.883 543.879 633.988 543.009 632.915 542.415L469.582 448.086C465.475 445.712 460.814 444.463 456.07 444.463C451.326 444.463 446.665 445.712 442.558 448.086V448.086Z" fill="#328151"/>
<path d="M359.097 449.648L247.84 513.896C245.604 515.183 243.747 517.037 242.455 519.271C241.164 521.504 240.484 524.039 240.484 526.619C240.484 529.199 241.164 531.733 242.455 533.967C243.747 536.2 245.604 538.054 247.84 539.341L303.864 571.688C307.572 573.823 311.775 574.947 316.054 574.947C320.332 574.947 324.536 573.823 328.244 571.688L439.519 507.441C441.75 506.15 443.603 504.295 444.892 502.062C446.18 499.829 446.858 497.296 446.858 494.718C446.858 492.14 446.18 489.607 444.892 487.374C443.603 485.141 441.75 483.286 439.519 481.996L383.478 449.648C379.773 447.505 375.568 446.377 371.288 446.377C367.007 446.377 362.803 447.505 359.097 449.648V449.648Z" fill="#2B573D"/>
<path d="M119.121 515.854C119.121 515.854 92.9893 490.323 107.858 447.571C116.185 423.62 143.811 406.021 159.538 404.373C154.331 410.559 150.178 417.561 147.245 425.096L127.431 438.265L145.648 432.565L141.767 448.155C141.767 448.155 124.838 458.456 122.332 460.62L140.583 455.761C140.583 455.761 139.175 499.92 119.121 515.854Z" fill="#2B573D"/>
<path opacity="0.4" d="M119.121 515.854C119.121 515.854 92.9893 490.323 107.858 447.571C116.185 423.62 143.811 406.021 159.538 404.373C154.331 410.559 150.178 417.561 147.245 425.096L127.431 438.265L145.648 432.565L141.767 448.155C141.767 448.155 124.838 458.456 122.332 460.62L140.583 455.761C140.583 455.761 139.175 499.92 119.121 515.854Z" fill="#2B573D"/>
<path d="M119.121 515.854C119.121 515.854 105.592 462.44 125.611 431.294C125.611 431.226 102.158 458.714 119.121 515.854Z" fill="#263238"/>
<path d="M149.03 523.013L117.044 522.601H116.717L84.748 523.013C84.748 523.013 84.3875 562.4 96.5262 578.419C99.9601 582.694 107.738 585.681 116.889 585.681C126.04 585.681 133.921 582.677 137.269 578.402C149.374 562.365 149.03 523.013 149.03 523.013Z" fill="#37474F"/>
<path d="M116.889 540.268C134.64 540.268 149.03 532.543 149.03 523.013C149.03 513.483 134.64 505.758 116.889 505.758C99.1381 505.758 84.748 513.483 84.748 523.013C84.748 532.543 99.1381 540.268 116.889 540.268Z" fill="#455A64"/>
<path d="M116.889 518.429C127.946 518.429 137.303 521.983 140.6 526.893C141.413 525.761 141.862 524.407 141.888 523.013C141.888 516.145 130.693 510.668 116.889 510.668C103.085 510.668 91.8561 516.197 91.8561 523.013C91.885 524.404 92.3272 525.755 93.1267 526.893C96.4575 521.983 105.832 518.429 116.889 518.429Z" fill="#263238"/>
<path d="M116.889 535.358C129.984 535.358 140.6 531.568 140.6 526.893C140.6 522.219 129.984 518.429 116.889 518.429C103.794 518.429 93.1782 522.219 93.1782 526.893C93.1782 531.568 103.794 535.358 116.889 535.358Z" fill="#D74E26"/>
<path d="M117.284 529.022C117.284 529.022 104.888 528.542 94.277 512.093C89.8817 505.312 87.7698 501.792 87.7698 501.792L104.939 500.504L85.6065 495.68L76.4724 481.704L92.5257 480.502C92.5257 480.502 80.5072 476.313 72.0427 476.261C72.0427 476.261 57.2255 450.112 52.8988 446.386C64.0957 447.074 75.041 449.999 85.0882 454.989C95.1353 459.979 104.08 466.932 111.395 475.437C135.81 504.161 120.89 529.761 117.284 529.022Z" fill="#328151"/>
<path d="M117.284 529.022C117.284 529.022 125.027 482.356 75.5967 454.301C75.5967 454.301 126.899 478.939 117.284 529.022Z" fill="#2B573D"/>
<path d="M117.284 529.023C117.284 529.023 128.496 529.744 139.604 515.905C144.188 510.205 146.472 507.183 146.472 507.183L131.019 504.402L148.91 501.861L158.473 490.1L144.103 487.507C144.103 487.507 155.28 484.863 162.989 485.618C162.989 485.618 178.819 463.401 183.077 460.448C172.909 460.019 162.759 461.631 153.225 465.191C143.691 468.75 134.967 474.184 127.568 481.171C102.896 504.848 113.953 529.349 117.284 529.023Z" fill="#00AD45"/>
<path opacity="0.2" d="M117.284 529.023C117.284 529.023 128.496 529.744 139.604 515.905C144.188 510.205 146.472 507.183 146.472 507.183L131.019 504.402L148.91 501.861L158.473 490.1L144.103 487.507C144.103 487.507 155.28 484.863 162.989 485.618C162.989 485.618 178.819 463.401 183.077 460.448C172.909 460.019 162.759 461.631 153.225 465.191C143.691 468.75 134.967 474.184 127.568 481.171C102.896 504.848 113.953 529.349 117.284 529.023Z" fill="black"/>
<path d="M117.284 529.022C117.284 529.022 114.674 486.202 161.924 465.496C161.924 465.53 113.318 482.94 117.284 529.022Z" fill="#2B573D"/>
<path d="M174.115 149.116V234.413L100.235 277.062V191.764L174.115 149.116Z" fill="#FAFAFA"/>
<path d="M166.114 153.734V229.795L100.235 267.825V191.764L166.114 153.734ZM170.114 146.867L96.2859 189.515V274.813L100.286 277.131L174.115 234.482V149.116L170.114 146.798V146.867Z" fill="#E0E0E0"/>
<path d="M170.114 156.035V232.095L104.235 270.126V194.065L170.114 156.035V156.035ZM174.115 149.167L100.286 191.816V277.113L174.115 234.465V149.116V149.167Z" fill="#455A64"/>
<path d="M163.264 214.892L107.377 247.153L123.894 204.212L135.329 217.776L147.021 201.139L163.264 214.892Z" fill="#00AD45"/>
<path d="M143.879 188.09C143.779 189.866 143.259 191.592 142.364 193.129C141.469 194.666 140.223 195.969 138.729 196.932C135.913 198.546 133.578 197.241 133.578 193.979C133.681 192.207 134.202 190.484 135.097 188.95C135.992 187.417 137.236 186.116 138.729 185.154C141.647 183.523 143.879 184.845 143.879 188.09Z" fill="#D74E26"/>
<path d="M198.753 42.9232V110.862L139.913 144.841V76.8842L198.753 42.9232Z" fill="#FAFAFA"/>
<path d="M192.383 46.5974V107.222L139.93 137.492V76.8842L192.4 46.5974H192.383ZM195.594 41.0689L136.72 75.0471V143.003L139.913 144.841L198.753 110.862V42.906L195.576 41.0689H195.594Z" fill="#455A64"/>
<path d="M195.576 48.4345V109.025L143.09 139.329V78.7213L195.576 48.4345V48.4345ZM198.753 42.906L139.93 76.8842V144.841L198.77 110.862V42.906H198.753Z" fill="#37474F"/>
<path d="M190.116 95.3241L145.596 121.027L158.748 86.8081L167.865 97.6248L177.171 84.3529L190.116 95.3241Z" fill="#263238"/>
<path d="M174.681 73.9654C174.606 75.3764 174.198 76.7497 173.491 77.9731C172.784 79.1965 171.797 80.2353 170.612 81.0048C168.363 82.3097 166.56 81.2452 166.56 78.6698C166.632 77.2599 167.037 75.8871 167.741 74.6637C168.445 73.4402 169.429 72.4007 170.612 71.6303C172.861 70.3255 174.681 71.39 174.681 73.9654Z" fill="#D74E26"/>
<path d="M323.9 435.724L347.783 581.475C347.958 582.541 348.507 583.51 349.331 584.208C350.155 584.906 351.201 585.289 352.281 585.286V585.286C352.92 585.286 353.552 585.15 354.135 584.889C354.718 584.627 355.239 584.246 355.665 583.77C356.091 583.294 356.412 582.733 356.607 582.125C356.802 581.516 356.867 580.874 356.797 580.239L340.039 429.869L323.9 435.724Z" fill="#263238"/>
<path d="M406.348 386.706L430.247 532.456C430.419 533.521 430.964 534.489 431.786 535.188C432.607 535.886 433.65 536.269 434.729 536.268C435.369 536.267 436.002 536.131 436.587 535.869C437.171 535.607 437.693 535.224 438.12 534.746C438.546 534.268 438.866 533.705 439.06 533.094C439.254 532.484 439.317 531.839 439.244 531.203L422.487 380.851L406.348 386.706Z" fill="#263238"/>
<path d="M287.244 401.643L263.67 527.237C263.512 528.117 263.048 528.914 262.36 529.486C261.672 530.057 260.805 530.368 259.91 530.362C259.36 530.36 258.816 530.24 258.316 530.01C257.815 529.78 257.371 529.446 257.011 529.029C256.651 528.612 256.385 528.123 256.231 527.595C256.076 527.066 256.037 526.511 256.116 525.966L273.525 409.558L287.244 401.643Z" fill="#263238"/>
<path d="M370.618 354.788L347.182 479.609C347.024 480.49 346.56 481.286 345.872 481.858C345.184 482.429 344.316 482.74 343.422 482.734C342.873 482.732 342.331 482.612 341.832 482.383C341.333 482.154 340.889 481.821 340.53 481.407C340.171 480.992 339.904 480.505 339.748 479.979C339.593 479.453 339.551 478.899 339.627 478.356L356.9 362.686L370.618 354.788Z" fill="#263238"/>
<path d="M363.819 345.276C358.415 342.884 353.742 339.103 350.276 334.316C346.81 329.529 344.676 323.909 344.091 318.028C340.297 279.775 326.819 200.967 281.183 227.202C224.833 259.583 245.007 353.62 253.197 383.77C255.017 390.562 258.566 396.767 263.498 401.78C273.68 412.082 294.747 429.698 330.596 444.704C334.994 446.541 339.885 446.832 344.469 445.528C362.274 440.463 408.786 424.925 432.033 395.222C433.349 393.538 433.947 391.402 433.696 389.28C433.445 387.158 432.366 385.22 430.694 383.89C421.302 376.438 400.064 361.449 363.819 345.276Z" fill="#D74E26"/>
<path opacity="0.5" d="M363.819 345.276C358.415 342.884 353.742 339.103 350.276 334.316C346.81 329.529 344.676 323.909 344.091 318.028C340.297 279.775 326.819 200.967 281.183 227.202C224.833 259.583 245.007 353.62 253.197 383.77C255.017 390.562 258.566 396.767 263.498 401.78C273.68 412.082 294.747 429.698 330.596 444.704C334.994 446.541 339.885 446.832 344.469 445.528C362.274 440.463 408.786 424.925 432.033 395.222C433.349 393.538 433.947 391.402 433.696 389.28C433.445 387.158 432.366 385.22 430.694 383.89C421.302 376.438 400.064 361.449 363.819 345.276Z" fill="#D74E26"/>
<path d="M433.716 389.847C433.816 391.793 433.206 393.709 431.999 395.239C430.762 396.835 429.44 398.364 428.084 399.874C427.329 400.699 426.573 401.505 425.783 402.295C425.011 403.085 424.221 403.858 423.414 404.63L420.976 406.897C420.135 407.635 419.259 408.373 418.418 409.094C405.249 420.134 389.23 428.547 375.031 434.608L372.387 435.724L372.112 435.827L369.674 436.823L369.245 436.977L366.978 437.87L366.463 438.076L364.351 438.866L363.733 439.089L361.776 439.81L361.072 440.068L359.269 440.703L358.531 440.961L356.814 441.527L356.007 441.802L354.496 442.3L353.638 442.592L352.281 443.021L351.354 443.313L350.187 443.691L349.191 443.983L348.212 444.292L346.993 444.652L346.375 444.824C345.791 445.013 345.207 445.167 344.658 445.322C340.074 446.626 335.183 446.335 330.785 444.498C294.936 429.474 273.869 411.876 263.687 401.574C258.755 396.561 255.206 390.356 253.386 383.564C245.196 353.414 225.022 259.377 281.372 226.996C282.368 226.435 283.346 225.92 284.308 225.451L284.943 225.142C285.904 224.695 286.832 224.283 287.759 223.923L288.033 223.82C288.909 223.493 289.75 223.202 290.643 222.961L291.038 222.841C291.965 222.583 292.875 222.377 293.768 222.206H294.008C295.787 221.888 297.594 221.761 299.4 221.828H299.503C301.244 221.893 302.972 222.158 304.653 222.618V222.618C295.657 218.652 284.668 218.823 273.748 225.09C217.399 257.472 237.573 351.508 245.762 381.658L247.153 386.809C249.947 397.273 256.13 406.517 264.735 413.095L279.363 424.272C295.075 436.25 312.266 446.153 330.51 453.735C334.92 455.593 339.83 455.895 344.435 454.593C362.222 449.528 408.768 433.99 431.999 404.287C433.002 403.022 433.6 401.485 433.716 399.874V399.874V389.83V389.847Z" fill="#BA68C8"/>
<path opacity="0.6" d="M433.716 389.847C433.816 391.793 433.206 393.709 431.999 395.239C430.762 396.835 429.44 398.364 428.084 399.874C427.329 400.699 426.573 401.505 425.783 402.295C425.011 403.085 424.221 403.858 423.414 404.63L420.976 406.897C420.135 407.635 419.259 408.373 418.418 409.094C405.249 420.134 389.23 428.547 375.031 434.608L372.387 435.724L372.112 435.827L369.674 436.823L369.245 436.977L366.978 437.87L366.463 438.076L364.351 438.866L363.733 439.089L361.776 439.81L361.072 440.068L359.269 440.703L358.531 440.961L356.814 441.527L356.007 441.802L354.496 442.3L353.638 442.592L352.281 443.021L351.354 443.313L350.187 443.691L349.191 443.983L348.212 444.292L346.993 444.652L346.375 444.824C345.791 445.013 345.207 445.167 344.658 445.322C340.074 446.626 335.183 446.335 330.785 444.498C294.936 429.474 273.869 411.876 263.687 401.574C258.755 396.561 255.206 390.356 253.386 383.564C245.196 353.414 225.022 259.377 281.372 226.996C282.368 226.435 283.346 225.92 284.308 225.451L284.943 225.142C285.904 224.695 286.832 224.283 287.759 223.923L288.033 223.82C288.909 223.493 289.75 223.202 290.643 222.961L291.038 222.841C291.965 222.583 292.875 222.377 293.768 222.206H294.008C295.787 221.888 297.594 221.761 299.4 221.828H299.503C301.244 221.893 302.972 222.158 304.653 222.618V222.618C295.657 218.652 284.668 218.823 273.748 225.09C217.399 257.472 237.573 351.508 245.762 381.658L247.153 386.809C249.947 397.273 256.13 406.517 264.735 413.095L279.363 424.272C295.075 436.25 312.266 446.153 330.51 453.735C334.92 455.593 339.83 455.895 344.435 454.593C362.222 449.528 408.768 433.99 431.999 404.287C433.002 403.022 433.6 401.485 433.716 399.874V399.874V389.83V389.847Z" fill="#00AD45"/>
<path d="M464.792 497.448C460.946 472.913 456.019 433.698 453.203 410.519C453.02 408.997 452.762 407.486 452.43 405.987C450.948 399.589 448.171 393.563 444.27 388.28C440.369 382.998 435.427 378.57 429.749 375.271L371.957 340.932L332.725 320.329C332.725 320.329 322.286 350.581 334.442 369.09C344.538 384.542 389.11 403.566 402.364 410.004C415.619 416.443 415.894 418.177 415.619 426.779C415.344 435.381 415.327 446.335 431.604 480.639C436.291 490.494 439.553 497.809 441.819 503.526C449.944 504.154 458.041 502.012 464.792 497.448Z" fill="#0551E6"/>
<path opacity="0.7" d="M464.792 497.448C460.946 472.913 456.019 433.698 453.203 410.519C452.927 408.242 452.491 405.988 451.898 403.772C448.518 391.783 440.605 381.58 429.835 375.322L371.957 340.863L332.725 320.26C332.725 320.26 322.286 350.512 334.442 369.021C344.538 384.474 389.11 403.497 402.364 409.936C415.619 416.374 415.894 418.108 415.619 426.71C415.344 435.312 415.327 446.266 431.604 480.571C436.291 490.426 439.553 497.74 441.819 503.457C449.936 504.106 458.033 501.988 464.792 497.448V497.448Z" fill="black"/>
<path d="M446.919 523.425C446.894 524.443 447.137 525.449 447.623 526.344C449.926 530.237 452.863 533.718 456.31 536.646C464.105 543.668 489.911 571.156 498.976 554.09C498.976 554.09 472.312 528.559 468.793 518.034C467.048 511.253 465.712 504.372 464.792 497.431C458.019 501.966 449.909 504.072 441.785 503.406C446.781 515.854 447.005 519.888 446.919 523.425Z" fill="#FFA8A7"/>
<path d="M474.733 521.743L473.995 519.528C473.698 518.715 473.105 518.043 472.335 517.649C471.564 517.254 470.673 517.165 469.84 517.399L459.04 520.73C458.362 520.939 457.769 521.361 457.349 521.933C456.929 522.505 456.703 523.196 456.705 523.906V524.988C456.701 525.499 456.494 525.988 456.131 526.348C455.768 526.709 455.277 526.911 454.765 526.911V526.911C452.478 526.912 450.262 526.117 448.498 524.661L446.987 523.425V519.648C446.014 520.283 445.224 521.163 444.696 522.2C444.169 523.236 443.923 524.393 443.983 525.554C444.12 528.112 444.24 531.237 444.137 532.422C443.966 534.688 441.854 544.132 444.378 546.93C446.902 549.729 452.568 550.055 459.573 549.3C466.578 548.544 474.235 555.429 480.725 557.987C487.215 560.545 514.103 566.04 514.034 548.853C514.034 544.475 509.69 542.689 505.449 541.144C501.208 539.599 485.859 534.19 481.927 530.945C480.347 529.631 478.882 528.183 477.549 526.619C476.297 525.195 475.34 523.538 474.733 521.743V521.743Z" fill="#263238"/>
<path d="M480.657 558.039C474.167 555.48 466.509 548.596 459.504 549.351C452.499 550.106 446.833 549.78 444.309 546.982C443.5 545.819 443.079 544.431 443.107 543.016C442.987 545.66 443.193 548.166 444.309 549.437C446.833 552.235 452.499 552.562 459.504 551.806C466.509 551.051 474.167 557.953 480.657 560.494C487.147 563.035 514.034 568.546 513.965 551.36C513.948 551.112 513.913 550.865 513.862 550.622C512.18 565.645 486.923 560.494 480.657 558.039Z" fill="#D74E26"/>
<path d="M412.305 527.22C408.442 502.702 403.532 463.487 400.699 440.291C399.219 428.103 393.198 416.92 383.839 408.974L314.491 350.015L277.423 349.311C277.423 349.311 269.782 380.215 281.904 398.707C292.017 414.159 336.571 433.2 349.826 439.622C363.081 446.043 363.355 447.811 363.081 456.396C362.806 464.981 362.789 475.952 379.083 510.256C383.753 520.129 387.015 527.426 389.281 533.143C397.404 533.82 405.518 531.733 412.305 527.22V527.22Z" fill="#0551E6"/>
<path opacity="0.7" d="M412.305 527.22C408.442 502.702 403.532 463.487 400.699 440.291C399.219 428.103 393.198 416.92 383.839 408.974L314.491 350.015L277.423 349.311C277.423 349.311 269.782 380.215 281.904 398.707C292.017 414.159 336.571 433.2 349.826 439.622C363.081 446.043 363.355 447.811 363.081 456.396C362.806 464.981 362.789 475.952 379.083 510.256C383.753 520.129 387.015 527.426 389.281 533.143C397.404 533.82 405.518 531.733 412.305 527.22V527.22Z" fill="black"/>
<path d="M394.398 550.982C394.398 552.012 393.694 555.051 395.119 556.133C396.939 557.489 398.673 561.833 403.824 566.435C411.601 573.457 419.825 558.331 416.289 547.84C414.554 541.057 413.224 534.178 412.305 527.237C405.524 531.768 397.41 533.874 389.281 533.212C394.295 545.608 394.501 547.462 394.398 550.982Z" fill="#FFA8A7"/>
<path d="M348.573 221.433C353.878 220.591 359.31 221.657 363.903 224.442C368.496 227.227 371.952 231.551 373.657 236.645C376.106 244.001 377.679 251.619 378.344 259.343C380.353 283.123 380.903 295.004 380.903 295.004L404.785 305.838C404.785 305.838 391.891 306.456 392.767 324.724L363.012 317.221L348.573 221.433Z" fill="#FFA8A7"/>
<path d="M381.778 280.633C378.258 254.879 376.868 241.401 373.846 235.014C371.772 230.24 368.151 226.303 363.565 223.839C358.98 221.375 353.699 220.528 348.573 221.433L357.569 292.171L358.72 292.068C366.687 291.282 374.192 287.96 380.13 282.59L381.778 280.633Z" fill="#2C393F"/>
<path opacity="0.2" d="M381.778 280.633C378.258 254.879 376.868 241.401 373.846 235.014C371.772 230.24 368.151 226.303 363.565 223.839C358.98 221.375 353.699 220.528 348.573 221.433L357.569 292.171L358.72 292.068C366.687 291.282 374.192 287.96 380.13 282.59L381.778 280.633Z" fill="black"/>
<path d="M380.903 295.004C378.219 295.829 375.791 297.324 373.846 299.348C373.846 299.348 376.73 293.871 380.714 292.171L380.903 295.004Z" fill="#F28F8F"/>
<path d="M291.193 242.294L317.908 229.348L339.919 221.742C339.919 221.742 357.569 216.128 362.068 239.633C365.794 258.948 366.274 332.347 366.274 332.347L365.879 340.365C365.879 340.365 355.698 368.901 319.316 371.27C282.934 373.64 275.843 358.29 275.843 358.29C275.843 358.29 272.135 261.163 291.193 242.294Z" fill="#2B573D"/>
<path d="M375.374 163.881C375.374 163.881 383.632 185.051 372.232 194.374C360.832 203.697 364.849 166.165 364.849 166.165L375.374 163.881Z" fill="#263238"/>
<path d="M446.936 284.908L193.155 431.432V463.178V617.445C193.168 618.057 193.355 618.652 193.696 619.161C194.037 619.669 194.517 620.069 195.078 620.312C196.53 621.054 198.136 621.44 199.766 621.44C201.395 621.44 203.002 621.054 204.453 620.312C205.011 620.066 205.488 619.665 205.825 619.157C206.163 618.649 206.348 618.055 206.359 617.445V617.445V470.818L343.954 550.192V705.97C343.969 706.579 344.159 707.171 344.499 707.676C344.84 708.181 345.318 708.578 345.877 708.82C347.328 709.562 348.935 709.948 350.564 709.948C352.194 709.948 353.8 709.562 355.252 708.82C355.811 708.578 356.289 708.181 356.629 707.676C356.97 707.171 357.159 706.579 357.174 705.97V705.97V550.192L591.073 415.155V562.812C591.092 563.422 591.287 564.014 591.634 564.516C591.981 565.019 592.466 565.411 593.03 565.645C594.481 566.386 596.088 566.773 597.717 566.773C599.347 566.773 600.953 566.386 602.405 565.645C602.965 565.404 603.444 565.008 603.785 564.502C604.126 563.997 604.314 563.404 604.328 562.795V562.795V375.803L446.936 284.908Z" fill="#455A64"/>
<path d="M355.251 708.854C353.8 709.596 352.194 709.983 350.564 709.983C348.935 709.983 347.328 709.596 345.877 708.854C343.284 707.361 343.284 704.94 345.877 703.446C347.328 702.705 348.935 702.318 350.564 702.318C352.194 702.318 353.8 702.705 355.251 703.446C357.844 704.94 357.844 707.361 355.251 708.854Z" fill="#455A64"/>
<path d="M357.209 546.398H343.954V706.004H357.209V546.398Z" fill="#37474F"/>
<path d="M199.8 621.445C203.46 621.445 206.427 619.731 206.427 617.616C206.427 615.502 203.46 613.788 199.8 613.788C196.14 613.788 193.173 615.502 193.173 617.616C193.173 619.731 196.14 621.445 199.8 621.445Z" fill="#455A64"/>
<path d="M206.427 457.873H193.173V617.479H206.427V457.873Z" fill="#263238"/>
<path d="M602.405 565.645C600.953 566.386 599.347 566.773 597.717 566.773C596.088 566.773 594.481 566.386 593.03 565.645C590.438 564.151 590.438 561.73 593.03 560.236C594.481 559.495 596.088 559.108 597.717 559.108C599.347 559.108 600.953 559.495 602.405 560.236C604.997 561.747 604.997 564.168 602.405 565.645Z" fill="#455A64"/>
<path d="M604.362 403.205H591.107V562.812H604.362V403.205Z" fill="#37474F"/>
<path d="M440.394 444.875C439.091 445.536 437.65 445.88 436.188 445.88C434.726 445.88 433.285 445.536 431.981 444.875C429.664 443.536 429.664 441.441 431.981 440.034C433.283 439.365 434.725 439.016 436.188 439.016C437.651 439.016 439.093 439.365 440.394 440.034C442.644 441.373 442.644 443.536 440.394 444.875Z" fill="#455A64"/>
<path d="M442.077 309.134H430.179V442.334H442.077V309.134Z" fill="#455A64"/>
<path d="M193.155 431.432V463.178L350.581 554.073V522.309L193.155 431.432Z" fill="#263238"/>
<path d="M604.362 375.803L350.581 522.309V554.073L604.362 407.549V375.803Z" fill="#37474F"/>
<path d="M446.936 284.908L193.155 431.432L350.581 522.309L604.362 375.803L446.936 284.908Z" fill="#455A64"/>
<path d="M319.625 383.787L377.348 417.112L473.308 361.604L415.602 327.609L319.625 383.787Z" fill="#EBEBEB"/>
<path d="M371.133 374.292L392.784 361.793L379.22 353.964L357.569 366.463L371.133 374.292Z" fill="#263238"/>
<path d="M379.804 408.785L350.633 391.616L407.635 357.106L379.804 408.785Z" fill="#37474F"/>
<path d="M396.132 301.717L419.225 312.551C426.124 314.292 432.927 316.395 439.605 318.852C439.605 318.852 455.675 325.411 456.413 329.72C457.152 334.03 444.395 344.417 433.115 339.37C430.167 337.79 427.011 336.634 423.74 335.936C420.735 335.609 411.722 334.219 405.283 328.021L378.344 321.016C378.344 321.016 377.005 304.396 396.132 301.717Z" fill="#FFA8A7"/>
<path d="M411.086 333.858C413.748 336.725 421.388 343.954 423.105 346.048C424.822 348.143 428.702 342.769 421.817 334.751C415.857 332.569 410.251 329.52 405.18 325.703C406.937 328.568 408.912 331.295 411.086 333.858V333.858Z" fill="#FFA8A7"/>
<path d="M345.31 197.177H317.908V230.348H345.31V197.177Z" fill="#FFA8A7"/>
<path d="M345.328 229.348C339.739 227.262 334.631 224.064 330.313 219.947C325.996 215.83 322.558 210.88 320.209 205.397V196.177H345.396L345.328 229.348Z" fill="#F28F8F"/>
<path d="M354.548 152.378C354.548 152.378 379.478 155.383 373.76 197.98C371.116 217.673 365.845 227.631 350.667 225.949C333.498 224.026 309.684 210.668 313.375 176.913C317.067 143.158 354.548 152.378 354.548 152.378Z" fill="#FFA8A7"/>
<path d="M355.938 190.357L355.045 205.071L363.819 202.959L355.938 190.357Z" fill="#F28F8F"/>
<path d="M342.89 189.035C342.853 189.628 342.994 190.219 343.293 190.732C343.593 191.246 344.038 191.659 344.573 191.919C345.107 192.18 345.707 192.276 346.296 192.195C346.885 192.114 347.437 191.861 347.882 191.467C348.327 191.072 348.645 190.555 348.795 189.98C348.946 189.404 348.922 188.797 348.728 188.236C348.534 187.674 348.177 187.182 347.703 186.823C347.229 186.464 346.659 186.254 346.066 186.219C345.271 186.172 344.491 186.442 343.895 186.97C343.3 187.498 342.938 188.24 342.89 189.035V189.035Z" fill="#263238"/>
<path d="M362.72 188.159C362.684 188.752 362.824 189.342 363.123 189.855C363.422 190.368 363.867 190.78 364.4 191.041C364.934 191.302 365.532 191.398 366.121 191.319C366.709 191.24 367.261 190.988 367.706 190.595C368.152 190.202 368.471 189.687 368.623 189.113C368.776 188.539 368.755 187.933 368.563 187.371C368.371 186.809 368.017 186.316 367.546 185.956C367.074 185.595 366.506 185.382 365.914 185.343C365.519 185.318 365.123 185.37 364.749 185.498C364.374 185.626 364.029 185.826 363.732 186.088C363.435 186.349 363.193 186.667 363.02 187.022C362.846 187.378 362.744 187.764 362.72 188.159V188.159Z" fill="#263238"/>
<path d="M369.76 182.321L364.111 178.475C364.111 178.475 366.497 176.278 368.661 177.823C369.276 178.375 369.709 179.1 369.905 179.902C370.101 180.705 370.051 181.548 369.76 182.321V182.321Z" fill="#263238"/>
<path d="M344.967 181.652L338.872 184.708C338.872 184.708 338.116 181.549 340.503 180.433C341.283 180.161 342.127 180.132 342.924 180.349C343.721 180.567 344.433 181.021 344.967 181.652V181.652Z" fill="#263238"/>
<path d="M355.475 211.046C352.044 211.079 348.7 209.961 345.98 207.869C345.98 207.869 345.019 212.917 349.208 214.136C353.397 215.355 355.475 211.046 355.475 211.046Z" fill="#F28F8F"/>
<path d="M317.616 190.013C317.616 190.013 321.445 197.997 323.814 197.722C326.184 197.448 323.814 167.144 328.725 166.955C333.635 166.766 356.814 178.269 377.297 163.418C385.178 157.718 386.74 143.158 382.019 144.532C377.297 145.905 370.927 150.043 362.325 149.459C353.723 148.875 323.608 134.9 316.14 154.61C316.14 154.61 299.485 153.254 305.735 186.322C307.297 194.546 312.208 214.909 317.908 216.918L317.616 190.013Z" fill="#263238"/>
<path d="M318.973 197.293C319.067 194.796 318.604 192.309 317.616 190.013C317.122 188.6 316.227 187.36 315.042 186.446C313.856 185.532 312.43 184.981 310.937 184.862C303.245 184.656 302.198 192.073 302.353 194.7C302.627 201.568 308.242 209.123 318.681 209.415L318.973 197.293Z" fill="#FFA8A7"/>
<path d="M321.342 345.722L340.984 361.329C344.342 361.646 347.671 362.22 350.942 363.046C354.702 364.162 364.557 367.785 367.167 368.351C369.777 368.918 366.412 373.502 359.578 371.785C359.578 371.785 373.897 381.589 373.709 385.95C373.52 390.311 358.823 397.763 348.899 390.448C346.342 388.312 343.506 386.533 340.469 385.16C337.584 384.216 329.12 380.937 324.089 373.519L306.92 364.574C306.92 364.574 302.078 344.297 321.342 345.722Z" fill="#FFA8A7"/>
<path d="M299.915 238.07C299.915 238.07 311.367 246.947 304.327 274.538C297.288 302.129 293.528 325.909 293.528 325.909L321.342 345.722C317.534 347.39 314.213 349.998 311.69 353.301C309.167 356.605 307.525 360.496 306.92 364.609C306.92 364.609 263.069 347.439 262.176 336.296C261.284 325.153 271.328 277.319 272.856 268.512C274.384 259.704 282.179 242.242 299.915 238.07Z" fill="#FFA8A7"/>
<path d="M293.528 325.909C290.06 325.229 286.491 325.264 283.037 326.012C286.329 324.225 290.023 323.309 293.768 323.351L293.528 325.909Z" fill="#F28F8F"/>
<path d="M486.752 298.026L476.708 363.699C476.722 363.737 476.722 363.78 476.708 363.819L376.868 421.628C376.843 421.641 376.815 421.646 376.787 421.644C376.76 421.642 376.733 421.633 376.71 421.617C376.687 421.601 376.669 421.58 376.658 421.554C376.646 421.529 376.642 421.501 376.645 421.474L386.38 357.775C386.586 356.417 387.086 355.121 387.846 353.976C388.605 352.832 389.604 351.866 390.775 351.148L482.219 295.073C482.699 294.758 483.26 294.59 483.834 294.589C484.408 294.588 484.97 294.754 485.451 295.068C485.931 295.381 486.311 295.828 486.542 296.353C486.773 296.878 486.846 297.46 486.752 298.026Z" fill="#FAFAFA"/>
<path d="M376.868 421.628L323.643 390.723C322.416 390.011 321.398 388.989 320.689 387.76C319.981 386.53 319.608 385.137 319.608 383.718V383.718L377.331 417.044L376.868 421.628Z" fill="#E0E0E0"/>
<path d="M429.011 361.329C429.011 366.034 432.308 367.922 436.36 365.587C438.503 364.192 440.286 362.312 441.566 360.098C442.846 357.885 443.586 355.401 443.725 352.848C443.725 348.143 440.429 346.254 436.36 348.59C434.222 349.988 432.443 351.87 431.166 354.083C429.89 356.296 429.151 358.778 429.011 361.329V361.329Z" fill="#D74E26"/>
<path d="M318.784 164.242C318.784 164.242 314.251 157.546 317.067 155.383C319.883 153.219 321.926 160.104 318.784 164.242Z" fill="#263238"/>
<path d="M319.539 165.598C319.539 165.598 311.538 164.603 311.727 161.1C311.916 157.597 318.492 160.551 319.539 165.598Z" fill="#263238"/>
<path d="M317.908 229.348C317.908 229.348 323.797 244.801 337.361 242.878C350.925 240.955 345.328 229.348 345.328 229.348H317.908Z" fill="#FFA8A7"/>
<path d="M299.915 238.07C299.915 238.07 308.843 242.345 307.469 260.305C306.096 278.264 299.005 314.457 299.005 314.457C299.005 314.457 267.052 327.403 263.996 309.151C263.224 304.43 271.276 260.768 278.161 251.531C280.689 247.933 283.92 244.885 287.659 242.572C291.398 240.258 295.567 238.727 299.915 238.07V238.07Z" fill="#37474F"/>
<path opacity="0.2" d="M299.915 238.07C299.915 238.07 308.843 242.345 307.469 260.305C306.096 278.264 299.005 314.457 299.005 314.457C299.005 314.457 267.052 327.403 263.996 309.151C263.224 304.43 271.276 260.768 278.161 251.531C280.689 247.933 283.92 244.885 287.659 242.572C291.398 240.258 295.567 238.727 299.915 238.07V238.07Z" fill="black"/>
<path d="M395.119 551.909C396.318 553.726 398.157 555.025 400.27 555.549C402.21 555.858 398.295 550.828 402.965 548.802C407.635 546.776 418.332 544.011 419.293 548.029L420.478 553.042C421.595 557.782 423.859 562.174 427.071 565.834C430.189 569.607 433.738 573.001 437.647 575.946C443.76 579.878 453.804 589.407 440.91 597.528C428.015 605.649 412.185 598.782 409.078 589.562C405.97 580.342 402.69 577.663 401.042 576.135C397.569 573.698 395.094 570.089 394.071 565.971C393.234 561.892 392.66 557.762 392.355 553.609C392.29 552.77 392.454 551.93 392.829 551.177C393.204 550.425 393.775 549.788 394.484 549.334V549.334L395.119 551.909Z" fill="#263238"/>
<path d="M440.978 597.494C428.084 605.598 412.254 598.747 409.146 589.527C406.038 580.307 402.759 577.629 401.111 576.101C398.2 573.996 395.963 571.091 394.672 567.739C394.672 567.98 394.672 568.254 394.672 568.495C395.17 576.479 400.064 578.35 401.712 579.895C403.36 581.441 406.073 583.947 409.181 593.184C412.288 602.422 428.633 608.156 441.51 600.052C447.777 596.12 448.619 591.845 447.142 588.034C447.451 591.141 445.871 594.421 440.978 597.494Z" fill="#D74E26"/>
<path d="M379.031 474.922L337.962 498.684L286.11 468.741L327.317 444.978C327.857 444.675 328.466 444.515 329.085 444.515C329.705 444.515 330.314 444.675 330.854 444.978L379.083 472.827C379.261 472.94 379.408 473.097 379.508 473.283C379.608 473.469 379.658 473.678 379.652 473.889C379.647 474.1 379.587 474.307 379.478 474.488C379.369 474.669 379.215 474.818 379.031 474.922V474.922Z" fill="#BA68C8"/>
<path opacity="0.7" d="M379.031 474.922L337.962 498.684L286.11 468.741L327.317 444.978C327.857 444.675 328.466 444.515 329.085 444.515C329.705 444.515 330.314 444.675 330.854 444.978L379.083 472.827C379.261 472.94 379.408 473.097 379.508 473.283C379.608 473.469 379.658 473.678 379.652 473.889C379.647 474.1 379.587 474.307 379.478 474.488C379.369 474.669 379.215 474.818 379.031 474.922V474.922Z" fill="black"/>
<path d="M376.181 474.063L337.962 496.126L289.699 468.277L328.004 446.163C328.5 445.868 329.066 445.713 329.643 445.713C330.22 445.713 330.787 445.868 331.283 446.163L376.181 472.072C376.356 472.173 376.501 472.318 376.602 472.493C376.702 472.667 376.755 472.866 376.755 473.067C376.755 473.269 376.702 473.467 376.602 473.642C376.501 473.817 376.356 473.962 376.181 474.063V474.063Z" fill="white"/>
<path d="M337.962 496.126V491.816L376.765 469.428V473.085L337.962 496.126Z" fill="white"/>
<path d="M337.962 496.126V491.816L289.699 463.968V468.277L337.962 496.126Z" fill="#E0E0E0"/>
<path d="M379.031 468.106L337.962 491.816L286.11 461.89L327.317 438.128C327.857 437.824 328.466 437.664 329.085 437.664C329.705 437.664 330.314 437.824 330.854 438.128L379.031 466.062C379.201 466.173 379.341 466.325 379.438 466.503C379.534 466.681 379.585 466.881 379.585 467.084C379.585 467.287 379.534 467.487 379.438 467.665C379.341 467.843 379.201 467.995 379.031 468.106V468.106Z" fill="#00AD45"/>
<path opacity="0.5" d="M379.031 468.106L337.962 491.816L286.11 461.89L327.317 438.128C327.857 437.824 328.466 437.664 329.085 437.664C329.705 437.664 330.314 437.824 330.854 438.128L379.031 466.062C379.201 466.173 379.341 466.325 379.438 466.503C379.534 466.681 379.585 466.881 379.585 467.084C379.585 467.287 379.534 467.487 379.438 467.665C379.341 467.843 379.201 467.995 379.031 468.106V468.106Z" fill="black"/>
<path d="M332.588 495.542C332.471 495.601 332.341 495.632 332.21 495.632C332.079 495.632 331.95 495.601 331.832 495.542C331.683 495.462 331.558 495.343 331.471 495.198C331.383 495.053 331.336 494.887 331.335 494.718V490.786C331.343 489.907 331.576 489.045 332.012 488.282C332.448 487.518 333.072 486.879 333.824 486.425L333.979 486.322C334.05 486.283 334.13 486.264 334.211 486.265C334.292 486.267 334.371 486.289 334.44 486.331C334.51 486.373 334.567 486.432 334.607 486.503C334.646 486.573 334.666 486.653 334.665 486.734C334.665 486.948 334.75 487.154 334.902 487.305C335.053 487.456 335.258 487.541 335.472 487.541C335.686 487.541 335.892 487.456 336.043 487.305C336.194 487.154 336.279 486.948 336.279 486.734C336.283 486.367 336.187 486.006 336.003 485.689C335.819 485.372 335.552 485.11 335.232 484.931C334.919 484.742 334.559 484.642 334.193 484.642C333.827 484.642 333.468 484.742 333.155 484.931L333 485.017C332.002 485.61 331.175 486.451 330.6 487.46C330.025 488.468 329.722 489.608 329.721 490.769V494.667C329.721 495.127 329.845 495.58 330.081 495.975C330.316 496.371 330.655 496.696 331.06 496.916C331.43 497.113 331.843 497.213 332.262 497.208C332.769 497.211 333.266 497.061 333.687 496.778C333.842 496.673 333.952 496.514 333.996 496.332L332.588 495.542Z" fill="white"/>
<path d="M324.913 491.112C324.796 491.171 324.667 491.202 324.535 491.202C324.404 491.202 324.275 491.171 324.158 491.112C324.008 491.032 323.883 490.914 323.796 490.769C323.708 490.624 323.661 490.458 323.66 490.288V486.391C323.665 485.509 323.897 484.643 324.333 483.877C324.769 483.11 325.394 482.468 326.149 482.013H326.304C326.375 481.974 326.455 481.953 326.536 481.953C326.617 481.953 326.697 481.974 326.768 482.013C326.835 482.054 326.892 482.112 326.931 482.181C326.97 482.25 326.99 482.328 326.991 482.408C326.991 482.622 327.076 482.827 327.227 482.978C327.378 483.13 327.584 483.215 327.798 483.215C328.012 483.215 328.217 483.13 328.368 482.978C328.52 482.827 328.605 482.622 328.605 482.408C328.593 482.055 328.49 481.712 328.307 481.411C328.123 481.111 327.865 480.862 327.557 480.691C327.244 480.501 326.885 480.401 326.519 480.401C326.152 480.401 325.793 480.501 325.48 480.691L325.325 480.777C324.327 481.369 323.5 482.21 322.925 483.219C322.35 484.227 322.047 485.368 322.046 486.528V490.426C322.046 490.886 322.17 491.339 322.406 491.735C322.642 492.13 322.98 492.455 323.385 492.675C323.755 492.872 324.168 492.972 324.587 492.967C325.094 492.97 325.591 492.821 326.012 492.538C326.167 492.432 326.277 492.273 326.321 492.091L324.913 491.112Z" fill="white"/>
<path d="M317.239 486.666C317.12 486.721 316.991 486.749 316.861 486.749C316.73 486.749 316.601 486.721 316.483 486.666C316.334 486.586 316.209 486.467 316.121 486.322C316.034 486.177 315.987 486.011 315.985 485.841V481.944C315.991 481.062 316.222 480.196 316.658 479.43C317.094 478.663 317.72 478.021 318.475 477.566L318.629 477.48C318.7 477.441 318.78 477.42 318.861 477.42C318.942 477.42 319.022 477.441 319.093 477.48C319.161 477.521 319.217 477.579 319.256 477.648C319.295 477.717 319.316 477.795 319.316 477.875C319.316 478.089 319.401 478.294 319.552 478.445C319.704 478.597 319.909 478.682 320.123 478.682C320.337 478.682 320.542 478.597 320.694 478.445C320.845 478.294 320.93 478.089 320.93 477.875C320.918 477.523 320.816 477.179 320.632 476.879C320.449 476.578 320.19 476.33 319.883 476.158C319.569 475.969 319.21 475.869 318.844 475.869C318.478 475.869 318.119 475.969 317.805 476.158L317.651 476.244C316.652 476.836 315.825 477.678 315.25 478.686C314.675 479.694 314.372 480.835 314.371 481.996V485.893C314.371 486.354 314.496 486.806 314.731 487.202C314.967 487.598 315.305 487.923 315.71 488.142C316.08 488.339 316.493 488.439 316.912 488.434C317.42 488.437 317.916 488.288 318.337 488.005C318.492 487.899 318.602 487.74 318.646 487.558L317.239 486.666Z" fill="white"/>
<path d="M309.564 482.253C309.446 482.308 309.317 482.337 309.186 482.337C309.056 482.337 308.927 482.308 308.808 482.253C308.659 482.173 308.534 482.054 308.446 481.909C308.359 481.764 308.312 481.598 308.31 481.429V477.531C308.316 476.65 308.548 475.784 308.984 475.017C309.42 474.251 310.045 473.609 310.8 473.153L310.955 473.067C311.026 473.028 311.105 473.008 311.186 473.008C311.267 473.008 311.347 473.028 311.418 473.067C311.486 473.109 311.542 473.167 311.581 473.236C311.62 473.305 311.641 473.383 311.641 473.462C311.641 473.676 311.726 473.882 311.878 474.033C312.029 474.184 312.234 474.269 312.448 474.269C312.662 474.269 312.868 474.184 313.019 474.033C313.17 473.882 313.255 473.676 313.255 473.462C313.244 473.11 313.141 472.767 312.957 472.466C312.774 472.165 312.516 471.917 312.208 471.745C311.894 471.556 311.535 471.456 311.169 471.456C310.803 471.456 310.444 471.556 310.13 471.745L309.976 471.831C308.978 472.424 308.15 473.265 307.576 474.273C307.001 475.282 306.698 476.422 306.697 477.583V481.48C306.697 481.941 306.821 482.393 307.057 482.789C307.292 483.185 307.631 483.51 308.036 483.73C308.405 483.927 308.819 484.027 309.238 484.022C309.745 484.025 310.242 483.875 310.663 483.592C310.817 483.487 310.928 483.328 310.972 483.146L309.564 482.253Z" fill="white"/>
<path d="M301.889 477.823C301.771 477.879 301.642 477.907 301.511 477.907C301.381 477.907 301.252 477.879 301.134 477.823C300.984 477.743 300.859 477.625 300.772 477.48C300.684 477.335 300.637 477.169 300.636 476.999V473.102C300.641 472.22 300.873 471.354 301.309 470.588C301.745 469.821 302.37 469.179 303.125 468.724H303.28C303.351 468.685 303.431 468.664 303.512 468.664C303.593 468.664 303.672 468.685 303.743 468.724C303.811 468.765 303.867 468.823 303.907 468.892C303.946 468.961 303.966 469.039 303.967 469.119C303.967 469.333 304.052 469.538 304.203 469.689C304.354 469.84 304.56 469.925 304.774 469.925C304.988 469.925 305.193 469.84 305.344 469.689C305.495 469.538 305.58 469.333 305.58 469.119C305.569 468.766 305.466 468.423 305.283 468.122C305.099 467.821 304.841 467.573 304.533 467.402C304.22 467.212 303.861 467.112 303.494 467.112C303.128 467.112 302.769 467.212 302.456 467.402L302.301 467.487C301.303 468.08 300.476 468.921 299.901 469.93C299.326 470.938 299.023 472.078 299.022 473.239V477.137C299.022 477.597 299.146 478.05 299.382 478.445C299.618 478.841 299.956 479.166 300.361 479.386C300.734 479.575 301.145 479.675 301.563 479.678C302.07 479.681 302.567 479.532 302.988 479.248C303.143 479.143 303.253 478.984 303.297 478.802L301.889 477.823Z" fill="white"/>
<path d="M294.214 473.394C294.096 473.449 293.967 473.477 293.837 473.477C293.706 473.477 293.577 473.449 293.459 473.394C293.31 473.314 293.185 473.195 293.097 473.05C293.009 472.905 292.962 472.739 292.961 472.57V468.638C292.966 467.756 293.198 466.89 293.634 466.124C294.07 465.357 294.696 464.715 295.451 464.26L295.605 464.174C295.676 464.135 295.756 464.114 295.837 464.114C295.918 464.114 295.998 464.135 296.069 464.174C296.139 464.212 296.197 464.269 296.237 464.339C296.276 464.409 296.295 464.489 296.292 464.569C296.292 464.783 296.377 464.988 296.528 465.139C296.68 465.291 296.885 465.376 297.099 465.376C297.313 465.376 297.518 465.291 297.669 465.139C297.821 464.988 297.906 464.783 297.906 464.569C297.888 464.212 297.779 463.865 297.589 463.562C297.4 463.26 297.136 463.01 296.822 462.838C296.509 462.666 296.157 462.577 295.8 462.579C295.443 462.582 295.092 462.675 294.781 462.852L294.626 462.955C293.628 463.547 292.801 464.389 292.226 465.397C291.651 466.405 291.348 467.546 291.347 468.706V472.604C291.347 473.065 291.471 473.517 291.707 473.913C291.943 474.309 292.281 474.634 292.686 474.853C293.059 475.042 293.47 475.142 293.888 475.145C294.396 475.148 294.892 474.999 295.313 474.716C295.468 474.61 295.578 474.451 295.622 474.269L294.214 473.394Z" fill="white"/>
<path d="M384.319 457.392L339.919 483.026L282.127 449.666L326.544 424.032L384.319 457.392Z" fill="#E6E6E6"/>
<path d="M386.877 456.551L340.486 478.39L285.681 440.291L332.09 418.469L386.877 456.551Z" fill="#FAFAFA"/>
<path d="M283.295 388.371H245.608L249.042 428.255C249.265 429.519 249.79 430.71 250.574 431.727C251.357 432.744 252.375 433.555 253.54 434.093C256.934 435.819 260.687 436.719 264.494 436.719C268.302 436.719 272.055 435.819 275.448 434.093C276.611 433.552 277.627 432.739 278.41 431.723C279.192 430.707 279.72 429.518 279.947 428.255V428.255L283.295 388.371Z" fill="#D74E26"/>
<path d="M285.698 386.19V383.031H284.96C283.742 380.681 281.829 378.763 279.483 377.537C271.19 372.747 257.729 372.747 249.437 377.537C247.086 378.757 245.173 380.677 243.96 383.031H243.204V386.225C243.204 389.35 245.282 392.492 249.437 394.895C257.729 399.686 271.19 399.686 279.483 394.895C283.638 392.492 285.716 389.332 285.698 386.19Z" fill="#E0E0E0"/>
<path d="M279.483 391.891C271.19 396.681 257.729 396.681 249.437 391.891C241.144 387.1 241.127 379.34 249.437 374.55C257.747 369.759 271.19 369.742 279.483 374.55C287.776 379.357 287.776 387.083 279.483 391.891Z" fill="#EBEBEB"/>
<path d="M281.492 381.932V379.409H280.891C279.913 377.526 278.378 375.991 276.496 375.013C272.771 373.123 268.653 372.138 264.477 372.138C260.301 372.138 256.183 373.123 252.458 375.013C250.57 375.983 249.033 377.52 248.063 379.409H247.462V381.932C247.462 384.456 249.179 386.98 252.458 388.886C256.183 390.776 260.301 391.761 264.477 391.761C268.653 391.761 272.771 390.776 276.496 388.886C279.826 386.946 281.492 384.422 281.492 381.932Z" fill="#E0E0E0"/>
<path d="M276.496 386.465C272.771 388.355 268.653 389.34 264.477 389.34C260.301 389.34 256.183 388.355 252.458 386.465C245.797 382.636 245.797 376.404 252.458 372.575C256.183 370.685 260.301 369.7 264.477 369.7C268.653 369.7 272.771 370.685 276.496 372.575C283.14 376.404 283.14 382.636 276.496 386.465Z" fill="#F5F5F5"/>
<path d="M273.714 384.439C270.843 385.895 267.67 386.653 264.451 386.653C261.233 386.653 258.059 385.895 255.188 384.439C250.226 381.589 250.038 377.022 254.673 374.138C254.837 374.017 255.009 373.908 255.188 373.811C256.312 373.172 257.512 372.676 258.76 372.335C263.753 370.927 269.093 371.454 273.714 373.811C278.848 376.782 278.848 381.486 273.714 384.439Z" fill="#F0F0F0"/>
<path d="M255.188 375.271C258.06 373.807 261.237 373.044 264.46 373.044C267.683 373.044 270.86 373.807 273.731 375.271C274.661 375.705 275.481 376.343 276.132 377.136C276.782 377.929 277.247 378.858 277.491 379.855C277.886 377.674 276.616 375.408 273.731 373.743C270.856 372.294 267.68 371.539 264.46 371.539C261.24 371.539 258.064 372.294 255.188 373.743C252.287 375.46 251.033 377.674 251.411 379.855C251.657 378.857 252.125 377.927 252.779 377.133C253.432 376.34 254.256 375.703 255.188 375.271Z" fill="#E0E0E0"/>
<path d="M262.194 375.769L258.399 378.19L254.69 375.528V374.069C254.854 373.948 255.026 373.839 255.206 373.743C256.329 373.103 257.529 372.607 258.777 372.266V373.348L262.194 375.769Z" fill="#E0E0E0"/>
<path d="M709.713 141.561L495.989 18.0791C495.089 17.4154 494 17.0573 492.881 17.0573C491.763 17.0573 490.674 17.4154 489.774 18.0791L482.374 23.2299L487.421 29.4796V201.774C487.421 208.093 491.267 215.51 496.006 218.154L707.619 340.331L708.013 347.044L715.808 341.705C716.703 340.864 717.394 339.829 717.828 338.681C718.262 337.532 718.429 336.3 718.315 335.077V157.855C718.298 151.537 714.452 144.205 709.713 141.561Z" fill="#282828"/>
<path opacity="0.3" d="M709.713 141.561L495.989 18.0791C495.089 17.4154 494 17.0573 492.881 17.0573C491.763 17.0573 490.674 17.4154 489.774 18.0791L482.374 23.2299L487.421 29.4796V201.774C487.421 208.093 491.267 215.51 496.006 218.154L707.619 340.331L708.013 347.044L715.808 341.705C716.703 340.864 717.394 339.829 717.828 338.681C718.262 337.532 718.429 336.3 718.315 335.077V157.855C718.298 151.537 714.452 144.205 709.713 141.561Z" fill="black"/>
<path d="M702.433 346.564L488.709 223.167C483.987 220.437 480.124 213.106 480.124 206.788V29.5654C480.124 23.2643 483.97 20.3626 488.709 23.0926L702.433 146.489C707.172 149.219 711.018 156.55 711.018 162.868V340.074C711.018 346.392 707.172 349.311 702.433 346.564Z" fill="#BA68C8"/>
<path d="M702.433 346.564L488.709 223.167C483.987 220.437 480.124 213.106 480.124 206.788V29.5654C480.124 23.2643 483.97 20.3626 488.709 23.0926L702.433 146.489C707.172 149.219 711.018 156.55 711.018 162.868V340.074C711.018 346.392 707.172 349.311 702.433 346.564Z" fill="#455A64"/>
<path d="M702.433 146.489L488.709 23.0926C483.987 20.3626 480.124 23.2643 480.124 29.5654V38.1501L711.001 171.436V162.851C711.018 156.55 707.172 149.219 702.433 146.489Z" fill="#CDCDCD"/>
<path d="M485.31 23.7793C486.21 23.8217 487.085 24.0936 487.851 24.5691L701.575 147.965C705.764 150.386 709.301 157.203 709.301 162.868V340.073C709.301 343.507 707.945 345.877 705.867 345.877C704.959 345.834 704.078 345.556 703.309 345.07L489.568 221.673C485.395 219.27 481.858 212.436 481.858 206.788V29.5654C481.858 26.0457 483.215 23.7793 485.292 23.7793H485.31ZM485.292 22.0624C482.253 22.0624 480.142 24.861 480.142 29.5654V206.805C480.142 213.123 483.987 220.454 488.726 223.184L702.433 346.564C703.467 347.205 704.652 347.56 705.867 347.594C708.906 347.594 711.018 344.778 711.018 340.073V162.868C711.018 156.55 707.172 149.133 702.433 146.489L488.709 23.0925C487.678 22.4466 486.492 22.0907 485.275 22.0624H485.292Z" fill="#CDCDCD"/>
<path d="M579.226 115.807C578.906 115.813 578.591 115.73 578.316 115.567L496.95 68.6601C496.569 68.4019 496.299 68.0086 496.196 67.5596C496.093 67.1106 496.165 66.6392 496.395 66.2406C496.626 65.8419 497 65.5457 497.441 65.4116C497.881 65.2775 498.357 65.3156 498.77 65.5181L580.136 112.493C580.503 112.684 580.795 112.994 580.962 113.373C581.129 113.751 581.163 114.175 581.057 114.575C580.951 114.975 580.712 115.327 580.379 115.573C580.046 115.819 579.639 115.944 579.226 115.927V115.807Z" fill="#00AD45"/>
<path d="M693.694 181.978C693.373 181.979 693.057 181.89 692.784 181.72L632.52 146.935C632.101 146.694 631.795 146.296 631.669 145.829C631.544 145.362 631.609 144.865 631.85 144.446C632.091 144.027 632.489 143.721 632.956 143.595C633.423 143.47 633.921 143.535 634.34 143.776L694.604 178.578C694.971 178.769 695.263 179.079 695.43 179.457C695.598 179.836 695.631 180.26 695.525 180.66C695.419 181.06 695.18 181.412 694.847 181.658C694.514 181.903 694.108 182.029 693.694 182.012V181.978Z" fill="#00AD45"/>
<path d="M620.364 139.638C620.045 139.634 619.733 139.552 619.454 139.398L594.919 125.25C594.694 125.141 594.495 124.986 594.333 124.796C594.171 124.606 594.05 124.384 593.978 124.145C593.905 123.906 593.882 123.655 593.911 123.407C593.939 123.159 594.019 122.92 594.144 122.703C594.269 122.487 594.437 122.299 594.638 122.151C594.839 122.003 595.069 121.898 595.312 121.842C595.555 121.786 595.808 121.781 596.053 121.827C596.299 121.873 596.532 121.968 596.739 122.108L621.222 136.239C621.59 136.429 621.881 136.739 622.048 137.118C622.216 137.496 622.249 137.92 622.143 138.32C622.037 138.72 621.798 139.072 621.465 139.318C621.132 139.564 620.726 139.689 620.312 139.673L620.364 139.638Z" fill="#00AD45"/>
<path d="M579.226 229.829C578.907 229.827 578.594 229.744 578.316 229.589L496.95 182.613C496.569 182.355 496.299 181.962 496.196 181.513C496.093 181.064 496.165 180.592 496.395 180.194C496.626 179.795 497 179.499 497.441 179.365C497.881 179.231 498.357 179.269 498.77 179.471L580.136 226.429C580.553 226.673 580.855 227.072 580.978 227.539C581.1 228.006 581.032 228.502 580.788 228.919C580.638 229.201 580.413 229.436 580.137 229.596C579.861 229.757 579.545 229.838 579.226 229.829Z" fill="#00AD45"/>
<path d="M693.694 295.914C693.374 295.92 693.059 295.837 692.784 295.674L632.52 260.888C632.101 260.647 631.795 260.249 631.669 259.782C631.544 259.315 631.609 258.818 631.85 258.399C632.091 257.98 632.489 257.674 632.956 257.548C633.423 257.423 633.921 257.488 634.34 257.729L694.604 292.532C695.019 292.772 695.322 293.167 695.448 293.63C695.573 294.093 695.511 294.587 695.274 295.004C695.112 295.28 694.882 295.509 694.605 295.669C694.328 295.828 694.014 295.913 693.694 295.914V295.914Z" fill="#00AD45"/>
<path d="M620.364 253.574C620.044 253.58 619.729 253.497 619.454 253.334L594.919 239.203C594.694 239.094 594.495 238.939 594.333 238.749C594.171 238.559 594.05 238.337 593.978 238.098C593.905 237.86 593.882 237.608 593.911 237.36C593.939 237.112 594.019 236.873 594.144 236.657C594.269 236.44 594.437 236.252 594.638 236.104C594.839 235.956 595.069 235.851 595.312 235.795C595.555 235.739 595.808 235.734 596.053 235.78C596.299 235.826 596.532 235.922 596.739 236.061L621.222 250.192C621.637 250.433 621.94 250.827 622.066 251.29C622.191 251.753 622.129 252.247 621.892 252.664C621.735 252.933 621.513 253.157 621.245 253.316C620.978 253.476 620.675 253.564 620.364 253.574V253.574Z" fill="#00AD45"/>
<path d="M579.226 256.596C578.906 256.602 578.591 256.519 578.316 256.356L496.95 209.397C496.531 209.156 496.226 208.758 496.1 208.291C495.974 207.824 496.039 207.327 496.281 206.908C496.522 206.489 496.92 206.183 497.387 206.057C497.854 205.932 498.351 205.997 498.77 206.238L580.136 253.162C580.503 253.353 580.795 253.663 580.962 254.041C581.129 254.42 581.163 254.844 581.057 255.244C580.951 255.644 580.712 255.996 580.379 256.241C580.046 256.487 579.639 256.612 579.226 256.596V256.596Z" fill="#00AD45"/>
<path d="M668.043 307.898C667.723 307.904 667.408 307.821 667.133 307.658L632.52 287.673C632.295 287.563 632.096 287.408 631.934 287.218C631.772 287.028 631.651 286.807 631.579 286.568C631.506 286.329 631.483 286.077 631.512 285.829C631.54 285.581 631.62 285.342 631.745 285.126C631.87 284.91 632.038 284.722 632.239 284.573C632.44 284.425 632.669 284.32 632.913 284.264C633.156 284.208 633.409 284.203 633.654 284.249C633.899 284.295 634.133 284.391 634.34 284.531L668.953 304.516C669.16 304.633 669.342 304.791 669.488 304.979C669.634 305.167 669.741 305.382 669.803 305.612C669.866 305.842 669.882 306.082 669.851 306.318C669.82 306.554 669.742 306.782 669.623 306.988C669.461 307.264 669.231 307.493 668.954 307.653C668.677 307.812 668.363 307.897 668.043 307.898Z" fill="#00AD45"/>
<path d="M620.364 280.376C620.045 280.371 619.733 280.289 619.454 280.135L594.919 266.005C594.5 265.764 594.194 265.366 594.068 264.899C593.943 264.432 594.008 263.934 594.249 263.515C594.491 263.096 594.888 262.79 595.355 262.665C595.822 262.539 596.32 262.604 596.739 262.846L621.222 276.976C621.59 277.167 621.881 277.477 622.048 277.855C622.216 278.234 622.249 278.658 622.143 279.058C622.037 279.458 621.798 279.809 621.465 280.055C621.132 280.301 620.726 280.426 620.312 280.41L620.364 280.376Z" fill="#00AD45"/>
<path d="M538.655 106.622C538.333 106.623 538.018 106.533 537.745 106.364L496.95 82.8248C496.636 82.544 496.428 82.1625 496.363 81.7456C496.299 81.3288 496.381 80.9024 496.596 80.5394C496.811 80.1764 497.145 79.8994 497.542 79.7557C497.938 79.6119 498.373 79.6105 498.77 79.7515L539.565 103.291C539.981 103.534 540.284 103.933 540.407 104.4C540.529 104.867 540.461 105.364 540.217 105.78C540.058 106.049 539.828 106.27 539.553 106.418C539.278 106.567 538.967 106.637 538.655 106.622V106.622Z" fill="#00AD45"/>
<path d="M656.145 174.458C655.826 174.454 655.514 174.371 655.235 174.217L594.919 139.415C594.694 139.305 594.495 139.151 594.333 138.96C594.171 138.77 594.05 138.549 593.978 138.31C593.905 138.071 593.882 137.82 593.911 137.572C593.939 137.324 594.019 137.084 594.144 136.868C594.269 136.652 594.437 136.464 594.638 136.316C594.839 136.168 595.069 136.062 595.312 136.006C595.555 135.951 595.808 135.946 596.053 135.991C596.299 136.037 596.532 136.133 596.739 136.273L657.003 171.058C657.37 171.249 657.662 171.559 657.829 171.937C657.997 172.316 658.03 172.74 657.924 173.14C657.818 173.54 657.579 173.892 657.246 174.137C656.913 174.383 656.507 174.508 656.093 174.492L656.145 174.458Z" fill="#00AD45"/>
<path d="M579.793 130.367C579.473 130.373 579.158 130.29 578.883 130.126L554.399 115.996C553.98 115.755 553.674 115.357 553.549 114.89C553.423 114.423 553.488 113.925 553.729 113.506C553.971 113.088 554.369 112.782 554.836 112.656C555.302 112.531 555.8 112.596 556.219 112.837L580.703 126.967C581.119 127.211 581.422 127.61 581.544 128.077C581.667 128.544 581.599 129.04 581.355 129.457C581.205 129.739 580.979 129.973 580.703 130.134C580.427 130.295 580.112 130.375 579.793 130.367Z" fill="#00AD45"/>
<path d="M579.226 144.205C578.905 144.206 578.589 144.117 578.316 143.948L496.95 96.9208C496.623 96.6434 496.405 96.2594 496.333 95.8365C496.262 95.4137 496.342 94.9792 496.56 94.6096C496.777 94.2401 497.118 93.9593 497.523 93.8167C497.927 93.6741 498.369 93.679 498.77 93.8304L580.136 140.806C580.553 141.049 580.855 141.449 580.978 141.915C581.1 142.382 581.032 142.879 580.788 143.295C580.638 143.577 580.413 143.812 580.137 143.973C579.861 144.133 579.545 144.214 579.226 144.205Z" fill="#00AD45"/>
<path d="M649.483 184.759C649.163 184.766 648.848 184.682 648.573 184.519L632.52 175.248C632.295 175.138 632.096 174.983 631.934 174.793C631.772 174.603 631.651 174.381 631.579 174.143C631.506 173.904 631.483 173.652 631.512 173.404C631.54 173.156 631.62 172.917 631.745 172.701C631.87 172.485 632.038 172.297 632.239 172.148C632.44 172 632.669 171.895 632.913 171.839C633.156 171.783 633.409 171.778 633.654 171.824C633.899 171.87 634.133 171.966 634.34 172.106L650.393 181.377C650.808 181.618 651.111 182.012 651.236 182.475C651.362 182.938 651.299 183.432 651.063 183.849C650.901 184.125 650.671 184.355 650.394 184.514C650.117 184.674 649.803 184.758 649.483 184.759V184.759Z" fill="#00AD45"/>
<path d="M546.673 139.57C546.354 139.565 546.042 139.483 545.763 139.329L529.675 130.058C529.468 129.938 529.286 129.779 529.14 129.589C528.994 129.399 528.887 129.183 528.825 128.952C528.763 128.72 528.747 128.479 528.778 128.242C528.809 128.005 528.886 127.776 529.006 127.568C529.125 127.361 529.284 127.179 529.474 127.033C529.664 126.887 529.881 126.78 530.112 126.718C530.343 126.656 530.584 126.64 530.821 126.671C531.059 126.702 531.288 126.779 531.495 126.899L547.549 136.17C547.916 136.361 548.207 136.671 548.374 137.049C548.542 137.427 548.575 137.852 548.469 138.252C548.363 138.652 548.124 139.003 547.791 139.249C547.459 139.495 547.052 139.62 546.639 139.604L546.673 139.57Z" fill="#00AD45"/>
<path d="M620.364 167.951C620.045 167.946 619.733 167.864 619.454 167.71L594.919 153.58C594.711 153.46 594.529 153.301 594.384 153.111C594.238 152.922 594.131 152.705 594.068 152.474C594.006 152.243 593.99 152.001 594.021 151.764C594.052 151.527 594.13 151.298 594.249 151.09C594.369 150.883 594.528 150.701 594.718 150.555C594.907 150.409 595.124 150.302 595.355 150.24C595.586 150.178 595.828 150.162 596.065 150.193C596.302 150.224 596.531 150.301 596.739 150.421L621.222 164.551C621.59 164.742 621.881 165.052 622.048 165.43C622.216 165.808 622.249 166.233 622.143 166.633C622.037 167.032 621.798 167.384 621.465 167.63C621.132 167.876 620.726 168.001 620.312 167.985L620.364 167.951Z" fill="#00AD45"/>
<path d="M523.941 126.435C523.621 126.441 523.306 126.358 523.031 126.195L496.95 111.137C496.569 110.879 496.299 110.486 496.196 110.037C496.093 109.588 496.165 109.116 496.395 108.718C496.626 108.319 497 108.023 497.441 107.889C497.881 107.755 498.357 107.793 498.77 107.995L524.851 123.053C525.236 123.23 525.547 123.538 525.728 123.922C525.909 124.306 525.949 124.742 525.84 125.152C525.731 125.563 525.481 125.922 525.134 126.166C524.786 126.41 524.364 126.523 523.941 126.487V126.435Z" fill="#00AD45"/>
<path d="M579.793 158.731C579.473 158.737 579.158 158.654 578.883 158.49L554.399 144.308C554.175 144.199 553.975 144.044 553.814 143.854C553.652 143.664 553.531 143.442 553.458 143.203C553.385 142.964 553.363 142.713 553.391 142.465C553.42 142.217 553.499 141.978 553.624 141.761C553.749 141.545 553.918 141.357 554.119 141.209C554.32 141.061 554.549 140.956 554.792 140.9C555.036 140.844 555.288 140.839 555.533 140.885C555.779 140.931 556.012 141.026 556.219 141.166L580.703 155.297C581.07 155.487 581.361 155.797 581.528 156.176C581.696 156.554 581.729 156.978 581.623 157.378C581.517 157.778 581.278 158.13 580.945 158.376C580.613 158.622 580.206 158.747 579.793 158.731V158.731Z" fill="#00AD45"/>
<path d="M579.226 173.548C578.906 173.554 578.591 173.471 578.316 173.307L496.95 126.332C496.569 126.074 496.299 125.681 496.196 125.232C496.093 124.782 496.165 124.311 496.395 123.912C496.626 123.514 497 123.218 497.441 123.083C497.881 122.949 498.357 122.987 498.77 123.19L580.136 170.148C580.553 170.392 580.855 170.791 580.978 171.258C581.1 171.725 581.032 172.221 580.788 172.638C580.638 172.92 580.413 173.154 580.137 173.315C579.861 173.476 579.545 173.556 579.226 173.548V173.548Z" fill="#00AD45"/>
<path d="M693.694 239.633C693.378 239.649 693.063 239.578 692.784 239.427L632.52 204.642C632.101 204.4 631.795 204.002 631.669 203.535C631.544 203.069 631.609 202.571 631.85 202.152C632.091 201.733 632.489 201.427 632.956 201.302C633.423 201.176 633.921 201.241 634.34 201.482L694.604 236.285C695.019 236.525 695.322 236.92 695.448 237.383C695.573 237.846 695.511 238.34 695.274 238.757C695.108 239.027 694.876 239.249 694.599 239.402C694.322 239.556 694.011 239.635 693.694 239.633V239.633Z" fill="#00AD45"/>
<path d="M620.364 197.293C620.044 197.299 619.729 197.216 619.454 197.053L594.919 182.922C594.694 182.812 594.495 182.658 594.333 182.468C594.171 182.278 594.05 182.056 593.978 181.817C593.905 181.578 593.882 181.327 593.911 181.079C593.939 180.831 594.019 180.591 594.144 180.375C594.269 180.159 594.437 179.971 594.638 179.823C594.839 179.675 595.069 179.569 595.312 179.514C595.555 179.458 595.808 179.453 596.053 179.499C596.299 179.544 596.532 179.64 596.739 179.78L621.222 193.911C621.638 194.155 621.942 194.552 622.067 195.018C622.192 195.484 622.129 195.98 621.892 196.4C621.731 196.664 621.507 196.883 621.24 197.039C620.973 197.194 620.672 197.282 620.364 197.293V197.293Z" fill="#00AD45"/>
<path d="M538.655 164.276C538.335 164.283 538.02 164.199 537.745 164.036L496.95 140.497C496.531 140.255 496.226 139.858 496.1 139.391C495.974 138.924 496.039 138.426 496.281 138.007C496.522 137.588 496.92 137.282 497.387 137.157C497.854 137.031 498.351 137.096 498.77 137.338L539.565 160.894C539.932 161.085 540.223 161.395 540.391 161.773C540.558 162.151 540.592 162.576 540.486 162.975C540.38 163.375 540.14 163.727 539.808 163.973C539.475 164.219 539.068 164.344 538.655 164.328V164.276Z" fill="#00AD45"/>
<path d="M656.145 232.13C655.823 232.131 655.508 232.041 655.235 231.872L594.919 197.087C594.5 196.846 594.194 196.448 594.068 195.981C593.943 195.514 594.008 195.016 594.249 194.597C594.491 194.179 594.888 193.873 595.355 193.747C595.822 193.621 596.32 193.686 596.739 193.928L657.003 228.73C657.371 228.921 657.662 229.231 657.829 229.609C657.997 229.988 658.03 230.412 657.924 230.812C657.818 231.212 657.579 231.564 657.246 231.809C656.913 232.055 656.507 232.18 656.093 232.164L656.145 232.13Z" fill="#00AD45"/>
<path d="M579.793 188.039C579.474 188.035 579.162 187.952 578.883 187.798L554.399 173.651C554.175 173.541 553.975 173.386 553.814 173.196C553.652 173.006 553.531 172.785 553.458 172.546C553.385 172.307 553.363 172.056 553.391 171.808C553.42 171.56 553.499 171.32 553.624 171.104C553.749 170.888 553.918 170.7 554.119 170.552C554.32 170.403 554.549 170.298 554.792 170.242C555.036 170.186 555.288 170.181 555.533 170.227C555.779 170.273 556.012 170.369 556.219 170.509L580.703 184.639C581.119 184.883 581.422 185.282 581.544 185.749C581.667 186.216 581.599 186.712 581.355 187.129C581.205 187.411 580.979 187.645 580.703 187.806C580.427 187.967 580.112 188.047 579.793 188.039V188.039Z" fill="#00AD45"/>
<path d="M579.226 201.86C578.906 201.866 578.591 201.783 578.316 201.62L496.95 154.644C496.569 154.386 496.299 153.993 496.196 153.544C496.093 153.095 496.165 152.623 496.395 152.225C496.626 151.826 497 151.53 497.441 151.396C497.881 151.262 498.357 151.3 498.77 151.502L580.136 198.478C580.503 198.668 580.795 198.978 580.962 199.357C581.129 199.735 581.163 200.159 581.057 200.559C580.951 200.959 580.712 201.311 580.379 201.557C580.046 201.803 579.639 201.928 579.226 201.912V201.86Z" fill="#00AD45"/>
<path d="M649.483 242.431C649.165 242.427 648.852 242.344 648.573 242.191L632.52 232.919C632.295 232.81 632.096 232.655 631.934 232.465C631.772 232.275 631.651 232.053 631.579 231.814C631.506 231.576 631.483 231.324 631.512 231.076C631.54 230.828 631.62 230.589 631.745 230.373C631.87 230.156 632.038 229.968 632.239 229.82C632.44 229.672 632.669 229.567 632.913 229.511C633.156 229.455 633.409 229.45 633.654 229.496C633.899 229.542 634.133 229.638 634.34 229.777L650.393 239.032C650.76 239.222 651.052 239.532 651.219 239.911C651.386 240.289 651.42 240.713 651.314 241.113C651.208 241.513 650.969 241.865 650.636 242.111C650.303 242.357 649.896 242.482 649.483 242.466V242.431Z" fill="#00AD45"/>
<path d="M546.673 197.241C546.351 197.243 546.036 197.153 545.763 196.984L529.675 187.73C529.256 187.488 528.95 187.09 528.825 186.624C528.699 186.157 528.764 185.659 529.006 185.24C529.247 184.821 529.645 184.515 530.112 184.39C530.579 184.264 531.076 184.329 531.495 184.571L547.549 193.842C547.916 194.033 548.207 194.343 548.374 194.721C548.542 195.099 548.575 195.524 548.469 195.924C548.363 196.323 548.124 196.675 547.791 196.921C547.459 197.167 547.052 197.292 546.639 197.276L546.673 197.241Z" fill="#00AD45"/>
<path d="M620.364 225.691C620.045 225.687 619.733 225.604 619.454 225.451L594.919 211.252C594.5 211.01 594.194 210.612 594.068 210.146C593.943 209.679 594.008 209.181 594.249 208.762C594.491 208.343 594.888 208.037 595.355 207.912C595.822 207.786 596.32 207.851 596.739 208.093L621.274 222.257C621.641 222.448 621.932 222.758 622.1 223.136C622.267 223.515 622.301 223.939 622.195 224.339C622.089 224.739 621.85 225.091 621.517 225.336C621.184 225.582 620.777 225.707 620.364 225.691V225.691Z" fill="#00AD45"/>
<path d="M523.941 184.107C523.621 184.113 523.306 184.03 523.031 183.867L496.95 168.809C496.525 168.568 496.212 168.167 496.082 167.695C495.951 167.224 496.014 166.719 496.255 166.294C496.496 165.868 496.897 165.555 497.369 165.425C497.84 165.295 498.345 165.357 498.77 165.598L524.851 180.639C525.218 180.829 525.509 181.139 525.677 181.518C525.844 181.896 525.877 182.32 525.771 182.72C525.665 183.12 525.426 183.472 525.094 183.718C524.761 183.964 524.354 184.089 523.941 184.073V184.107Z" fill="#00AD45"/>
<path d="M579.793 216.351C579.473 216.357 579.158 216.274 578.883 216.111L554.399 201.98C553.98 201.739 553.674 201.341 553.549 200.874C553.423 200.407 553.488 199.91 553.729 199.491C553.971 199.072 554.369 198.766 554.836 198.64C555.302 198.515 555.8 198.58 556.219 198.821L580.703 212.969C581.07 213.159 581.361 213.469 581.528 213.848C581.696 214.226 581.729 214.65 581.623 215.05C581.517 215.45 581.278 215.802 580.945 216.048C580.613 216.294 580.206 216.419 579.793 216.403V216.351Z" fill="#00AD45"/>
<path d="M546.673 224.369C546.353 224.375 546.038 224.292 545.763 224.129L529.709 214.857C529.485 214.748 529.286 214.593 529.124 214.403C528.962 214.213 528.841 213.991 528.768 213.752C528.696 213.513 528.673 213.262 528.702 213.014C528.73 212.766 528.81 212.526 528.935 212.31C529.06 212.094 529.228 211.906 529.429 211.758C529.63 211.61 529.859 211.505 530.103 211.449C530.346 211.393 530.598 211.388 530.844 211.434C531.089 211.479 531.323 211.575 531.529 211.715L547.583 220.987C547.969 221.164 548.279 221.472 548.46 221.856C548.641 222.24 548.681 222.676 548.572 223.086C548.464 223.497 548.213 223.856 547.866 224.1C547.518 224.344 547.096 224.458 546.673 224.421V224.369Z" fill="#00AD45"/>
<path d="M523.941 211.252C523.622 211.247 523.31 211.165 523.031 211.011L496.95 195.954C496.531 195.712 496.226 195.315 496.1 194.848C495.974 194.381 496.039 193.883 496.281 193.464C496.522 193.045 496.92 192.739 497.387 192.614C497.854 192.488 498.351 192.553 498.77 192.795L524.851 207.852C525.218 208.043 525.509 208.353 525.677 208.731C525.844 209.11 525.877 209.534 525.771 209.934C525.665 210.334 525.426 210.686 525.094 210.931C524.761 211.177 524.354 211.302 523.941 211.286V211.252Z" fill="#00AD45"/>
<path d="M579.793 243.496C579.474 243.492 579.162 243.409 578.883 243.255L554.399 229.125C553.98 228.884 553.674 228.486 553.549 228.019C553.423 227.552 553.488 227.054 553.729 226.635C553.971 226.217 554.369 225.911 554.836 225.785C555.302 225.659 555.8 225.725 556.219 225.966L580.703 240.096C581.119 240.34 581.422 240.739 581.544 241.206C581.667 241.673 581.599 242.169 581.355 242.586C581.205 242.868 580.979 243.102 580.703 243.263C580.427 243.424 580.112 243.504 579.793 243.496Z" fill="#00AD45"/>
<path d="M513.965 86.3274V152.155C513.965 153.219 513.587 153.872 512.987 154.164L510.463 155.554V153.305L510.102 85.6234L513.399 83.9065C513.767 84.6605 513.961 85.488 513.965 86.3274Z" fill="#263238"/>
<path d="M513.399 83.958L510.102 85.6749L430.282 38.8197L428.376 37.7209L431.003 36.2443H431.089C431.334 36.1137 431.611 36.0556 431.887 36.0769C432.164 36.0982 432.429 36.1979 432.651 36.3645L511.63 81.8462C512.414 82.361 513.029 83.0955 513.399 83.958V83.958Z" fill="#37474F"/>
<path d="M511.115 87.7524V153.151C511.151 153.5 511.101 153.854 510.969 154.18C510.837 154.506 510.628 154.795 510.36 155.022H510.205C509.967 155.118 509.708 155.153 509.453 155.123C509.198 155.093 508.955 154.999 508.746 154.85L430.282 109.643C429.56 109.129 428.97 108.453 428.558 107.668C428.147 106.884 427.926 106.014 427.912 105.128V39.8327C427.877 39.4911 427.924 39.146 428.049 38.8263C428.175 38.5066 428.375 38.2217 428.633 37.9956C428.703 37.9335 428.785 37.8867 428.874 37.8582C429.106 37.7748 429.356 37.7484 429.601 37.7813C429.846 37.8141 430.079 37.9053 430.282 38.0471L508.746 83.1853C509.507 83.6826 510.104 84.3933 510.463 85.2285C510.87 86.009 511.093 86.8723 511.115 87.7524Z" fill="#455A64"/>
<path d="M485.652 91.5507L493.898 100.037L485.652 99.0455V100.648L495.399 101.753V100.047L485.652 89.9225V91.5507ZM477.245 77.7511L475.788 76.914L483.183 105.509L484.639 106.346L477.245 77.7511ZM465.258 82.7245V84.4302L475.005 94.5289V92.9266L466.759 84.4401L475.005 85.4317V83.8036L465.258 82.7245Z" fill="#FAFAFA"/>
<path d="M429.028 37.9269C429.284 37.9342 429.534 38.0114 429.749 38.1501L508.728 83.6317C509.423 84.0919 509.971 84.7413 510.308 85.5032C510.671 86.2105 510.864 86.992 510.875 87.7867V153.58C510.915 153.852 510.889 154.129 510.799 154.389C510.71 154.649 510.559 154.884 510.36 155.074H510.222C510.109 155.101 509.992 155.101 509.879 155.074C509.625 155.054 509.379 154.977 509.158 154.85L430.179 109.351C429.523 108.872 428.987 108.247 428.612 107.527C428.237 106.806 428.033 106.009 428.015 105.196V39.5751C427.987 39.2996 428.02 39.0211 428.112 38.7599C428.204 38.4986 428.353 38.261 428.548 38.0642H428.702C428.804 38.0401 428.909 38.0401 429.011 38.0642L429.028 37.9269ZM429.011 37.6178C428.845 37.6171 428.681 37.6523 428.53 37.7208L428.29 37.8582C428.036 38.0905 427.839 38.3793 427.717 38.7014C427.595 39.0235 427.55 39.3699 427.586 39.7125V105.351C427.602 106.241 427.824 107.115 428.235 107.905C428.647 108.694 429.235 109.378 429.955 109.901L508.935 155.383C509.215 155.553 509.534 155.648 509.862 155.657C510.044 155.66 510.225 155.625 510.394 155.554L510.548 155.468C510.818 155.239 511.028 154.947 511.16 154.618C511.292 154.288 511.341 153.932 511.304 153.58V87.7867C511.282 86.9271 511.071 86.0829 510.686 85.3143C510.317 84.4806 509.723 83.7668 508.969 83.254L429.99 37.7723C429.705 37.5952 429.38 37.4946 429.045 37.4805L429.011 37.6178Z" fill="#37474F"/>
<path d="M501.277 39.6267C501.277 41.4981 499.955 42.2536 498.341 41.3436C497.475 40.7831 496.756 40.0226 496.245 39.1262C495.734 38.2298 495.446 37.2238 495.405 36.1928C495.405 34.3213 496.71 33.5659 498.341 34.4759C499.201 35.0425 499.916 35.8045 500.426 36.6995C500.936 37.5946 501.228 38.5976 501.277 39.6267V39.6267Z" fill="#263238"/>
<path d="M512.197 46.357C512.197 48.2285 510.875 49.0011 509.244 48.074C508.38 47.5104 507.664 46.7492 507.153 45.8534C506.643 44.9577 506.353 43.9532 506.308 42.9232C506.308 41.0517 507.63 40.2791 509.244 41.2062C510.11 41.7679 510.83 42.5283 511.344 43.4241C511.857 44.32 512.15 45.3255 512.197 46.357V46.357Z" fill="#00AD45"/>
<path d="M523.099 53.1046C523.099 54.9761 521.794 55.7315 520.163 54.8215C519.303 54.2548 518.588 53.4929 518.078 52.5978C517.568 51.7028 517.277 50.6998 517.227 49.6707C517.227 47.7993 518.549 47.0438 520.163 47.9538C521.03 48.5143 521.749 49.2747 522.259 50.1711C522.77 51.0675 523.058 52.0736 523.099 53.1046V53.1046Z" fill="#D74E26"/>
<defs>
<linearGradient id="paint0_linear" x1="0" y1="559.618" x2="764.037" y2="559.618" gradientUnits="userSpaceOnUse">
<stop stop-color="#13547A"/>
<stop offset="1" stop-color="#80D0C7"/>
</linearGradient>
</defs>
</svg>
