<svg width="1440" height="1024" viewBox="0 0 1440 1024" fill="none" xmlns="http://www.w3.org/2000/svg">
<rect width="1440" height="1024" fill="#E5E5E5"/>
<g clip-path="url(#clip0)">
<rect width="1440" height="1024" fill="#FAF9F9"/>
<path fill-rule="evenodd" clip-rule="evenodd" d="M594.754 191.813C586.554 252.846 581.087 319.688 536.781 362.458C494.805 402.978 424.601 381.832 371.925 406.913C306.066 438.27 266.565 536.11 194.402 525.474C124.877 515.226 108.774 420.378 69.2128 362.294C31.3463 306.699 -21.0502 259.735 -31.8183 193.336C-43.7009 120.065 -44.3146 33.1118 7.15411 -20.3748C58.047 -73.263 145.791 -48.3768 217.182 -65.4262C280.26 -80.4904 336.279 -122.852 400.568 -114.33C472.114 -104.845 549.009 -77.2592 587.666 -16.3134C625.78 43.7751 604.228 121.289 594.754 191.813Z" fill="#00AD45" fill-opacity="0.1"/>
<path fill-rule="evenodd" clip-rule="evenodd" d="M1260.05 512.631C1329.06 518.513 1379.55 575.038 1431.29 621.076C1477.8 662.458 1516.58 708.518 1543.37 764.715C1573.9 828.794 1610.09 896.304 1595.58 965.788C1580.42 1038.33 1526.47 1097.45 1465.16 1139.07C1405.16 1179.81 1332.08 1201.93 1260.05 1193.58C1192.43 1185.75 1143.65 1132.68 1086.8 1095.23C1026.4 1055.45 943.574 1035.54 917.625 968.03C891.469 899.984 930.663 826.258 957.327 758.409C982.394 694.623 1012.99 633.155 1066.2 589.958C1121.56 545.008 1189 506.574 1260.05 512.631Z" fill="url(#paint0_linear)"/>
</g>
<defs>
<linearGradient id="paint0_linear" x1="1253.94" y1="512" x2="1253.94" y2="1195.33" gradientUnits="userSpaceOnUse">
<stop stop-color="#00AD45" stop-opacity="0.1"/>
<stop offset="1" stop-color="#03491F" stop-opacity="0.73"/>
</linearGradient>
<clipPath id="clip0">
<rect width="1440" height="1024" fill="white"/>
</clipPath>
</defs>
</svg>
