<svg width="1440" height="1024" viewBox="0 0 1440 1024" fill="none" xmlns="http://www.w3.org/2000/svg">
<rect width="1440" height="1024" fill="#E5E5E5"/>
<g clip-path="url(#clip0)">
<rect width="1440" height="1024" fill="#FAF9F9"/>
<path fill-rule="evenodd" clip-rule="evenodd" d="M442.369 600.123C435.945 647.942 431.662 700.313 396.948 733.823C364.06 765.57 309.055 749.003 267.783 768.653C216.183 793.222 185.234 869.879 128.695 861.545C74.2223 853.516 61.6054 779.203 30.6097 733.695C0.941385 690.135 -40.1111 653.34 -48.5479 601.316C-57.8578 543.909 -58.3386 475.781 -18.0131 433.875C21.8613 392.437 90.6088 411.935 146.543 398.577C195.964 386.774 239.855 353.584 290.226 360.261C346.282 367.692 406.528 389.306 436.816 437.057C466.679 484.136 449.792 544.868 442.369 600.123Z" fill="#00AD45" fill-opacity="0.1"/>
<path fill-rule="evenodd" clip-rule="evenodd" d="M1050.51 226.023C1055.3 169.806 1101.29 128.675 1138.75 86.5244C1172.42 48.6374 1209.9 17.0433 1255.62 -4.77467C1307.76 -29.6528 1362.69 -59.1325 1419.23 -47.3069C1478.25 -34.9612 1526.36 8.9911 1560.23 58.9375C1593.37 107.812 1611.37 167.341 1604.58 226.023C1598.2 281.109 1555.02 320.849 1524.55 367.16C1492.18 416.362 1475.98 483.835 1421.05 504.974C1365.69 526.282 1305.7 494.352 1250.49 472.631C1198.59 452.211 1148.58 427.283 1113.43 383.939C1076.86 338.838 1045.59 283.907 1050.51 226.023Z" fill="url(#paint0_linear)"/>
</g>
<defs>
<linearGradient id="paint0_linear" x1="1050" y1="231" x2="1606" y2="231" gradientUnits="userSpaceOnUse">
<stop stop-color="#00AD45" stop-opacity="0.1"/>
<stop offset="1" stop-color="#03491F" stop-opacity="0.73"/>
</linearGradient>
<clipPath id="clip0">
<rect width="1440" height="1024" fill="white"/>
</clipPath>
</defs>
</svg>
