<svg width="1440" height="1024" viewBox="0 0 1440 1024" fill="none" xmlns="http://www.w3.org/2000/svg">
<rect width="1440" height="1024" fill="#E5E5E5"/>
<g clip-path="url(#clip0)">
<rect width="1440" height="1024" fill="#FAF9F9"/>
<path fill-rule="evenodd" clip-rule="evenodd" d="M594.754 191.813C586.554 252.846 581.087 319.688 536.781 362.458C494.805 402.978 424.601 381.832 371.925 406.913C306.066 438.27 266.565 536.11 194.402 525.474C124.877 515.226 108.774 420.378 69.2128 362.294C31.3463 306.699 -21.0502 259.735 -31.8183 193.336C-43.7009 120.065 -44.3146 33.1118 7.15411 -20.3748C58.047 -73.263 145.791 -48.3768 217.182 -65.4262C280.26 -80.4904 336.279 -122.852 400.568 -114.33C472.114 -104.845 549.009 -77.2592 587.666 -16.3134C625.78 43.7751 604.228 121.289 594.754 191.813Z" fill="#00AD45" fill-opacity="0.1"/>
<path fill-rule="evenodd" clip-rule="evenodd" d="M1018.51 522.023C1023.3 465.806 1069.29 424.675 1106.75 382.524C1140.42 344.637 1177.9 313.043 1223.62 291.225C1275.76 266.347 1330.69 236.868 1387.23 248.693C1446.25 261.039 1494.36 304.991 1528.23 354.938C1561.37 403.812 1579.37 463.341 1572.58 522.023C1566.2 577.109 1523.02 616.849 1492.55 663.16C1460.18 712.362 1443.98 779.835 1389.05 800.974C1333.69 822.282 1273.7 790.352 1218.49 768.631C1166.59 748.211 1116.58 723.283 1081.43 679.939C1044.86 634.838 1013.59 579.907 1018.51 522.023Z" fill="url(#paint0_linear)"/>
</g>
<defs>
<linearGradient id="paint0_linear" x1="1018" y1="527" x2="1574" y2="527" gradientUnits="userSpaceOnUse">
<stop stop-color="#00AD45" stop-opacity="0.1"/>
<stop offset="1" stop-color="#03491F" stop-opacity="0.73"/>
</linearGradient>
<clipPath id="clip0">
<rect width="1440" height="1024" fill="white"/>
</clipPath>
</defs>
</svg>
