<svg width="834" height="1194" viewBox="0 0 834 1194" fill="none" xmlns="http://www.w3.org/2000/svg">
<g clip-path="url(#clip0)">
<rect width="834" height="1194" fill="#FAF9F9"/>
<path fill-rule="evenodd" clip-rule="evenodd" d="M573.427 530.364C577.403 483.65 615.62 449.472 646.747 414.446C674.725 382.964 705.866 356.71 743.861 338.58C787.185 317.908 832.828 293.411 879.807 303.238C928.852 313.497 968.821 350.019 996.964 391.523C1024.5 432.136 1039.46 481.602 1033.82 530.364C1028.52 576.139 992.64 609.161 967.323 647.644C940.426 688.529 926.964 744.596 881.323 762.162C835.316 779.867 785.47 753.335 739.597 735.286C696.471 718.318 654.913 697.604 625.707 661.587C595.317 624.11 569.332 578.464 573.427 530.364Z" fill="url(#paint0_linear)"/>
<path fill-rule="evenodd" clip-rule="evenodd" d="M401.046 70.1832C392.597 133.074 386.964 201.951 341.309 246.023C298.055 287.777 225.714 265.987 171.434 291.832C103.57 324.143 62.867 424.962 -11.4929 414.001C-83.1343 403.442 -99.7278 305.706 -140.493 245.854C-179.512 188.566 -233.504 140.173 -244.6 71.7529C-256.844 -3.74864 -257.476 -93.349 -204.441 -148.464C-151.999 -202.962 -61.5831 -177.318 11.9804 -194.887C76.9788 -210.409 134.703 -254.061 200.95 -245.279C274.674 -235.506 353.909 -207.08 393.743 -144.279C433.018 -82.361 410.809 -2.48705 401.046 70.1832Z" fill="#00AD45" fill-opacity="0.1"/>
<path fill-rule="evenodd" clip-rule="evenodd" d="M290.893 917.633C284.119 968.055 279.603 1023.28 242.999 1058.61C208.32 1092.09 150.322 1074.62 106.803 1095.34C52.3941 1121.24 19.7606 1202.07 -39.8569 1193.29C-97.2948 1184.82 -110.599 1106.46 -143.282 1058.48C-174.565 1012.55 -217.852 973.747 -226.748 918.891C-236.565 858.359 -237.072 786.522 -194.551 742.334C-152.506 698.641 -80.0163 719.2 -21.0374 705.115C31.0746 692.67 77.3543 657.673 130.467 664.714C189.575 672.549 253.101 695.339 285.038 745.69C316.526 795.332 298.72 859.37 290.893 917.633Z" fill="#00AD45" fill-opacity="0.1"/>
</g>
<defs>
<linearGradient id="paint0_linear" x1="573" y1="534.5" x2="1035" y2="534.5" gradientUnits="userSpaceOnUse">
<stop stop-color="#00AD45" stop-opacity="0.1"/>
<stop offset="1" stop-color="#03491F" stop-opacity="0.73"/>
</linearGradient>
<clipPath id="clip0">
<rect width="834" height="1194" fill="white"/>
</clipPath>
</defs>
</svg>
