<svg width="1440" height="1024" viewBox="0 0 1440 1024" fill="none" xmlns="http://www.w3.org/2000/svg">
<rect width="1440" height="1024" fill="#E5E5E5"/>
<g clip-path="url(#clip0)">
<rect width="1440" height="1024" fill="#FAF9F9"/>
<path fill-rule="evenodd" clip-rule="evenodd" d="M598.871 675.747C590.422 738.638 584.789 807.515 539.134 851.586C495.88 893.34 423.54 871.551 369.259 897.395C301.396 929.707 260.692 1030.53 186.332 1019.56C114.691 1009.01 98.0974 911.27 57.3323 851.418C18.3131 794.13 -35.6784 745.737 -46.7744 677.316C-59.0187 601.815 -59.651 512.215 -6.61553 457.1C45.8266 402.602 136.242 428.245 209.806 410.677C274.804 395.154 332.528 351.503 398.775 360.285C472.499 370.058 551.734 398.484 591.569 461.285C630.843 523.202 608.634 603.076 598.871 675.747Z" fill="#00AD45" fill-opacity="0.1"/>
<path fill-rule="evenodd" clip-rule="evenodd" d="M1034.51 205.023C1039.3 148.806 1085.29 107.675 1122.75 65.5244C1156.42 27.6374 1193.9 -3.95666 1239.62 -25.7747C1291.76 -50.6528 1346.69 -80.1325 1403.23 -68.3069C1462.25 -55.9612 1510.36 -12.0089 1544.23 37.9375C1577.37 86.8121 1595.37 146.341 1588.58 205.023C1582.2 260.109 1539.02 299.849 1508.55 346.16C1476.18 395.362 1459.98 462.835 1405.05 483.974C1349.69 505.282 1289.7 473.352 1234.49 451.631C1182.59 431.211 1132.58 406.283 1097.43 362.939C1060.86 317.838 1029.59 262.907 1034.51 205.023Z" fill="url(#paint0_linear)"/>
</g>
<defs>
<linearGradient id="paint0_linear" x1="1034" y1="210" x2="1590" y2="210" gradientUnits="userSpaceOnUse">
<stop stop-color="#00AD45" stop-opacity="0.1"/>
<stop offset="1" stop-color="#03491F" stop-opacity="0.73"/>
</linearGradient>
<clipPath id="clip0">
<rect width="1440" height="1024" fill="white"/>
</clipPath>
</defs>
</svg>
